An undercover cop infiltrates an underworld subculture of Los Angeles street racers looking to bust a hijacking ring, and soon begins to question his loyalties when his new street racing friends become the prime suspects. 


Video
Format                                   : MPEG-4 Visual
Duration                                 : 1h 46mn
Bit rate                                 : 2 388 Kbps
Width                                    : 852 pixels
Height                                   : 480 pixels
Display aspect ratio                     : 16:9
Frame rate mode                          : Constant
Frame rate                               : 23.976 fps
Bits/(Pixel*Frame)                       : 0.244
Stream size                              : 1.78 GiB (91%)

Audio
ID                                       : 2
Format                                   : AAC
Format/Info                              : Advanced Audio Codec
Codec ID                                 : 40
Duration                                 : 1h 46mn
Bit rate mode                            : Variable
Bit rate                                 : 224 Kbps
Channel(s)                               : 6 channels
Channel positions                        : Front: L C R, Side: L R, LFE
Sampling rate                            : 48.0 KHz
Compression mode                         : Lossy
Stream size                              : 171 MiB (9%)

